<svg width="344" height="58" viewBox="0 0 344 58" fill="none" xmlns="http://www.w3.org/2000/svg">
<path d="M3.17007 24.4688H2.3254C1.04099 24.4688 0 25.5665 0 26.9201C0 28.2738 1.04099 29.3715 2.3254 29.3715H3.17007C4.45383 29.3715 5.49552 28.2738 5.49552 26.9201C5.49552 25.5665 4.45416 24.4688 3.17007 24.4688Z" fill="#111111"/>
<path d="M22.5084 29.3715C23.7925 29.3715 24.8342 28.2738 24.8342 26.9201C24.8342 25.5665 23.7925 24.4688 22.5084 24.4688H9.60324C8.31948 24.4688 7.27783 25.5665 7.27783 26.9201C7.27783 28.2738 8.31948 29.3715 9.60324 29.3715H22.5084Z" fill="#111111"/>
<path d="M11.0378 20.2714H11.8729C13.1576 20.2714 14.1983 19.1737 14.1983 17.8204C14.1983 16.466 13.1576 15.3687 11.8729 15.3687H11.0378C9.75339 15.3687 8.7124 16.4664 8.7124 17.8204C8.7124 19.1737 9.75339 20.2714 11.0378 20.2714Z" fill="#111111"/>
<path d="M25.0518 15.3687H18.3067C17.022 15.3687 15.981 16.4664 15.981 17.8204C15.981 19.174 17.022 20.2714 18.3067 20.2714H25.0518C26.3362 20.2714 27.3772 19.1737 27.3772 17.8204C27.3772 16.466 26.3362 15.3687 25.0518 15.3687Z" fill="#111111"/>
<path d="M11.8832 33.5698H11.0378C9.75339 33.5698 8.7124 34.6676 8.7124 36.0216C8.7124 37.3752 9.75339 38.4726 11.0378 38.4726H11.8832C13.1676 38.4726 14.2086 37.3749 14.2086 36.0216C14.2086 34.6676 13.1676 33.5698 11.8832 33.5698Z" fill="#111111"/>
<path d="M25.0518 33.5698H18.3167C17.0322 33.5698 15.9912 34.6676 15.9912 36.0216C15.9912 37.3752 17.0322 38.4726 18.3167 38.4726H25.0518C26.3362 38.4726 27.3772 37.3749 27.3772 36.0216C27.3772 34.6676 26.3362 33.5698 25.0518 33.5698Z" fill="#111111"/>
<path d="M86.9596 29.0353L75.7985 16.1665C75.3584 15.6582 74.7349 15.3687 74.0819 15.3687H60.8862V4.95139C60.8862 3.59739 59.8452 2.5 58.5608 2.5H16.1823C14.8979 2.5 13.8569 3.59774 13.8569 4.95139C13.8569 6.30504 14.8979 7.40278 16.1823 7.40278H56.235V46.439H36.1792C35.1747 42.8819 32.0464 40.2801 28.3506 40.2801C24.6549 40.2801 21.526 42.8819 20.5224 46.439H16.1823C14.8979 46.439 13.8569 47.5364 13.8569 48.8901C13.8569 50.2444 14.8979 51.3415 16.1823 51.3415H20.5224C21.526 54.8979 24.6549 57.5 28.3506 57.5C32.0464 57.5 35.1747 54.8979 36.1792 51.3415H58.5605H64.0729C65.0774 54.8979 68.2064 57.5 71.9014 57.5C75.5978 57.5 78.7261 54.8979 79.7303 51.3415H85.2431C86.5275 51.3415 87.5685 50.2441 87.5685 48.8901V30.6892C87.5691 30.0778 87.3512 29.4873 86.9596 29.0353ZM28.3506 52.5979C26.4116 52.5979 24.834 50.9349 24.834 48.8904C24.834 46.8463 26.4116 45.1829 28.3506 45.1829C30.2897 45.1829 31.8673 46.8467 31.8673 48.8904C31.8676 50.9349 30.2897 52.5979 28.3506 52.5979ZM71.9018 52.5979C69.9627 52.5979 68.3851 50.9349 68.3851 48.8904C68.3851 46.8463 69.963 45.1829 71.9018 45.1829C73.8415 45.1829 75.4191 46.8467 75.4191 48.8904C75.4194 50.9349 73.8415 52.5979 71.9018 52.5979ZM79.7309 46.4394C78.7268 42.8822 75.5985 40.2805 71.9021 40.2805C68.2067 40.2805 65.0781 42.8822 64.0736 46.4394H60.8865V20.2719H73.0578L79.9668 28.2382H66.7946C65.5108 28.2382 64.4698 29.3359 64.4698 30.6896C64.4698 32.0439 65.5108 33.141 66.7946 33.141H82.9183V46.439H79.7309V46.4394Z" fill="#111111"/>
<path d="M131.143 8.816V6.2H118.879V23H121.999V16.568H130.111V13.928H121.999V8.816H131.143ZM136.494 12.056V10.184H133.638V23H136.638V16.784C136.638 14.168 138.078 12.824 140.358 12.824C140.574 12.824 140.79 12.848 141.054 12.896V10.04C138.918 10.04 137.358 10.712 136.494 12.056ZM155.53 16.664C155.53 12.656 152.794 10.04 149.05 10.04C145.234 10.04 142.426 12.776 142.426 16.592C142.426 20.408 145.21 23.168 149.506 23.168C151.714 23.168 153.514 22.448 154.666 21.08L153.058 19.232C152.146 20.168 151.018 20.624 149.578 20.624C147.346 20.624 145.786 19.424 145.426 17.552H155.482C155.506 17.264 155.53 16.904 155.53 16.664ZM149.05 12.44C151.018 12.44 152.434 13.712 152.674 15.56H145.402C145.69 13.688 147.106 12.44 149.05 12.44ZM170.459 16.664C170.459 12.656 167.723 10.04 163.979 10.04C160.163 10.04 157.355 12.776 157.355 16.592C157.355 20.408 160.139 23.168 164.435 23.168C166.643 23.168 168.443 22.448 169.595 21.08L167.987 19.232C167.075 20.168 165.947 20.624 164.507 20.624C162.275 20.624 160.715 19.424 160.355 17.552H170.411C170.435 17.264 170.459 16.904 170.459 16.664ZM163.979 12.44C165.947 12.44 167.363 13.712 167.603 15.56H160.331C160.619 13.688 162.035 12.44 163.979 12.44ZM180.262 23H187.606C193.054 23 196.774 19.64 196.774 14.6C196.774 9.56 193.054 6.2 187.606 6.2H180.262V23ZM183.382 20.36V8.84H187.462C191.206 8.84 193.63 11.12 193.63 14.6C193.63 18.08 191.206 20.36 187.462 20.36H183.382ZM211.85 16.664C211.85 12.656 209.114 10.04 205.37 10.04C201.554 10.04 198.746 12.776 198.746 16.592C198.746 20.408 201.53 23.168 205.826 23.168C208.034 23.168 209.834 22.448 210.986 21.08L209.378 19.232C208.466 20.168 207.338 20.624 205.898 20.624C203.666 20.624 202.106 19.424 201.746 17.552H211.802C211.826 17.264 211.85 16.904 211.85 16.664ZM205.37 12.44C207.338 12.44 208.754 13.712 208.994 15.56H201.722C202.01 13.688 203.426 12.44 205.37 12.44ZM214.732 23H217.732V5.192H214.732V23ZM223.181 8.072C224.309 8.072 225.101 7.256 225.101 6.2C225.101 5.216 224.285 4.472 223.181 4.472C222.077 4.472 221.261 5.264 221.261 6.272C221.261 7.28 222.077 8.072 223.181 8.072ZM221.669 23H224.669V10.184H221.669V23ZM237.727 10.184L233.623 19.688L229.639 10.184H226.519L232.015 23H235.111L240.607 10.184H237.727ZM254.178 16.664C254.178 12.656 251.442 10.04 247.698 10.04C243.882 10.04 241.074 12.776 241.074 16.592C241.074 20.408 243.858 23.168 248.154 23.168C250.362 23.168 252.162 22.448 253.314 21.08L251.706 19.232C250.794 20.168 249.666 20.624 248.226 20.624C245.994 20.624 244.434 19.424 244.074 17.552H254.13C254.154 17.264 254.178 16.904 254.178 16.664ZM247.698 12.44C249.666 12.44 251.082 13.712 251.322 15.56H244.05C244.338 13.688 245.754 12.44 247.698 12.44ZM259.916 12.056V10.184H257.06V23H260.06V16.784C260.06 14.168 261.5 12.824 263.78 12.824C263.996 12.824 264.212 12.848 264.476 12.896V10.04C262.34 10.04 260.78 10.712 259.916 12.056ZM276.609 10.184L272.553 19.664L268.521 10.184H265.401L270.993 23.048L270.777 23.552C270.201 24.824 269.577 25.328 268.521 25.328C267.705 25.328 266.889 24.992 266.313 24.44L265.113 26.648C265.929 27.392 267.273 27.824 268.545 27.824C270.681 27.824 272.313 26.936 273.489 24.032L279.489 10.184H276.609Z" fill="#333333"/>
<path d="M118.447 51H125.903V49.976H119.631V39.8H118.447V51ZM130.944 51.08C133.408 51.08 135.216 49.288 135.216 46.792C135.216 44.296 133.408 42.52 130.944 42.52C128.48 42.52 126.656 44.296 126.656 46.792C126.656 49.288 128.48 51.08 130.944 51.08ZM130.944 50.072C129.152 50.072 127.808 48.76 127.808 46.792C127.808 44.824 129.152 43.512 130.944 43.512C132.736 43.512 134.064 44.824 134.064 46.792C134.064 48.76 132.736 50.072 130.944 50.072ZM138.623 44.232V42.584H137.535V51H138.671V46.712C138.671 44.728 139.743 43.608 141.503 43.608C141.583 43.608 141.679 43.624 141.775 43.624V42.52C140.223 42.52 139.151 43.112 138.623 44.232ZM151.098 46.792C151.098 44.264 149.386 42.52 147.018 42.52C144.65 42.52 142.906 44.296 142.906 46.792C142.906 49.288 144.698 51.08 147.322 51.08C148.65 51.08 149.818 50.6 150.57 49.704L149.93 48.968C149.29 49.704 148.378 50.072 147.354 50.072C145.514 50.072 144.17 48.904 144.042 47.144H151.082C151.082 47.016 151.098 46.888 151.098 46.792ZM147.018 43.496C148.666 43.496 149.866 44.648 150.01 46.296H144.042C144.186 44.648 145.386 43.496 147.018 43.496ZM163.906 42.52C162.386 42.52 161.186 43.208 160.578 44.296C160.066 43.112 158.978 42.52 157.586 42.52C156.178 42.52 155.09 43.112 154.498 44.12V42.584H153.41V51H154.546V46.584C154.546 44.664 155.65 43.544 157.362 43.544C158.898 43.544 159.794 44.456 159.794 46.232V51H160.93V46.584C160.93 44.664 162.018 43.544 163.746 43.544C165.266 43.544 166.162 44.456 166.162 46.232V51H167.298V46.12C167.298 43.704 165.954 42.52 163.906 42.52ZM175.142 40.744C175.622 40.744 175.974 40.376 175.974 39.912C175.974 39.48 175.606 39.128 175.142 39.128C174.678 39.128 174.31 39.496 174.31 39.928C174.31 40.376 174.678 40.744 175.142 40.744ZM174.566 51H175.702V42.584H174.566V51ZM183.199 42.52C181.807 42.52 180.639 43.128 179.951 44.248V42.584H178.863V54.104H179.999V49.416C180.703 50.504 181.855 51.08 183.199 51.08C185.599 51.08 187.391 49.352 187.391 46.792C187.391 44.248 185.599 42.52 183.199 42.52ZM183.119 50.072C181.327 50.072 179.983 48.76 179.983 46.792C179.983 44.84 181.327 43.512 183.119 43.512C184.895 43.512 186.255 44.84 186.255 46.792C186.255 48.76 184.895 50.072 183.119 50.072ZM191.963 51.08C194.155 51.08 195.435 50.136 195.435 48.68C195.435 45.448 189.979 47.16 189.979 44.888C189.979 44.088 190.651 43.496 192.171 43.496C193.035 43.496 193.915 43.704 194.651 44.216L195.147 43.304C194.443 42.824 193.259 42.52 192.171 42.52C190.027 42.52 188.843 43.544 188.843 44.92C188.843 48.248 194.299 46.52 194.299 48.712C194.299 49.544 193.643 50.088 192.043 50.088C190.859 50.088 189.723 49.672 189.051 49.144L188.539 50.04C189.227 50.632 190.571 51.08 191.963 51.08ZM203.983 42.584V47C203.983 48.92 202.879 50.056 201.119 50.056C199.519 50.056 198.591 49.144 198.591 47.352V42.584H197.455V47.464C197.455 49.88 198.863 51.08 201.007 51.08C202.351 51.08 203.439 50.488 204.031 49.464V51H205.119V42.584H203.983ZM218.797 42.52C217.277 42.52 216.077 43.208 215.469 44.296C214.957 43.112 213.869 42.52 212.477 42.52C211.069 42.52 209.981 43.112 209.389 44.12V42.584H208.301V51H209.437V46.584C209.437 44.664 210.541 43.544 212.253 43.544C213.789 43.544 214.685 44.456 214.685 46.232V51H215.821V46.584C215.821 44.664 216.909 43.544 218.637 43.544C220.157 43.544 221.053 44.456 221.053 46.232V51H222.189V46.12C222.189 43.704 220.845 42.52 218.797 42.52ZM236.001 39.128V44.184C235.297 43.096 234.145 42.52 232.801 42.52C230.401 42.52 228.609 44.248 228.609 46.792C228.609 49.336 230.401 51.08 232.801 51.08C234.193 51.08 235.361 50.472 236.049 49.336V51H237.137V39.128H236.001ZM232.897 50.072C231.105 50.072 229.761 48.76 229.761 46.792C229.761 44.824 231.105 43.512 232.897 43.512C234.673 43.512 236.017 44.824 236.017 46.792C236.017 48.76 234.673 50.072 232.897 50.072ZM243.741 51.08C246.205 51.08 248.013 49.288 248.013 46.792C248.013 44.296 246.205 42.52 243.741 42.52C241.277 42.52 239.453 44.296 239.453 46.792C239.453 49.288 241.277 51.08 243.741 51.08ZM243.741 50.072C241.949 50.072 240.605 48.76 240.605 46.792C240.605 44.824 241.949 43.512 243.741 43.512C245.533 43.512 246.861 44.824 246.861 46.792C246.861 48.76 245.533 50.072 243.741 50.072ZM250.332 51H251.468V39.128H250.332V51ZM258.069 51.08C260.533 51.08 262.341 49.288 262.341 46.792C262.341 44.296 260.533 42.52 258.069 42.52C255.605 42.52 253.781 44.296 253.781 46.792C253.781 49.288 255.605 51.08 258.069 51.08ZM258.069 50.072C256.277 50.072 254.933 48.76 254.933 46.792C254.933 44.824 256.277 43.512 258.069 43.512C259.861 43.512 261.189 44.824 261.189 46.792C261.189 48.76 259.861 50.072 258.069 50.072ZM265.748 44.232V42.584H264.66V51H265.796V46.712C265.796 44.728 266.868 43.608 268.628 43.608C268.708 43.608 268.804 43.624 268.9 43.624V42.52C267.348 42.52 266.276 43.112 265.748 44.232ZM277.526 51.08C279.718 51.08 280.998 50.136 280.998 48.68C280.998 45.448 275.542 47.16 275.542 44.888C275.542 44.088 276.214 43.496 277.734 43.496C278.598 43.496 279.478 43.704 280.214 44.216L280.71 43.304C280.006 42.824 278.822 42.52 277.734 42.52C275.59 42.52 274.406 43.544 274.406 44.92C274.406 48.248 279.862 46.52 279.862 48.712C279.862 49.544 279.206 50.088 277.606 50.088C276.422 50.088 275.286 49.672 274.614 49.144L274.102 50.04C274.79 50.632 276.134 51.08 277.526 51.08ZM283.674 40.744C284.154 40.744 284.506 40.376 284.506 39.912C284.506 39.48 284.138 39.128 283.674 39.128C283.21 39.128 282.842 39.496 282.842 39.928C282.842 40.376 283.21 40.744 283.674 40.744ZM283.098 51H284.234V42.584H283.098V51ZM291.427 49.672C291.107 49.96 290.643 50.104 290.179 50.104C289.235 50.104 288.723 49.56 288.723 48.568V43.544H291.283V42.584H288.723V40.744H287.587V42.584H286.083V43.544H287.587V48.632C287.587 50.184 288.467 51.08 290.051 51.08C290.707 51.08 291.379 50.888 291.827 50.488L291.427 49.672ZM301.026 42.52C299.698 42.52 298.45 42.936 297.602 43.656L298.114 44.504C298.802 43.896 299.826 43.512 300.914 43.512C302.482 43.512 303.298 44.296 303.298 45.736V46.248H300.626C298.21 46.248 297.378 47.336 297.378 48.632C297.378 50.088 298.546 51.08 300.45 51.08C301.842 51.08 302.834 50.552 303.346 49.688V51H304.434V45.784C304.434 43.608 303.202 42.52 301.026 42.52ZM300.626 50.184C299.282 50.184 298.498 49.576 298.498 48.6C298.498 47.736 299.026 47.096 300.658 47.096H303.298V48.472C302.85 49.576 301.906 50.184 300.626 50.184ZM318.016 42.52C316.496 42.52 315.296 43.208 314.688 44.296C314.176 43.112 313.088 42.52 311.696 42.52C310.288 42.52 309.2 43.112 308.608 44.12V42.584H307.52V51H308.656V46.584C308.656 44.664 309.76 43.544 311.472 43.544C313.008 43.544 313.904 44.456 313.904 46.232V51H315.04V46.584C315.04 44.664 316.128 43.544 317.856 43.544C319.376 43.544 320.272 44.456 320.272 46.232V51H321.408V46.12C321.408 43.704 320.064 42.52 318.016 42.52ZM331.864 46.792C331.864 44.264 330.152 42.52 327.784 42.52C325.416 42.52 323.672 44.296 323.672 46.792C323.672 49.288 325.464 51.08 328.088 51.08C329.416 51.08 330.584 50.6 331.336 49.704L330.696 48.968C330.056 49.704 329.144 50.072 328.12 50.072C326.28 50.072 324.936 48.904 324.808 47.144H331.848C331.848 47.016 331.864 46.888 331.864 46.792ZM327.784 43.496C329.432 43.496 330.632 44.648 330.776 46.296H324.808C324.952 44.648 326.152 43.496 327.784 43.496ZM338.208 49.672C337.888 49.96 337.424 50.104 336.96 50.104C336.016 50.104 335.504 49.56 335.504 48.568V43.544H338.064V42.584H335.504V40.744H334.368V42.584H332.864V43.544H334.368V48.632C334.368 50.184 335.248 51.08 336.832 51.08C337.488 51.08 338.16 50.888 338.608 50.488L338.208 49.672ZM340.944 51.08C341.408 51.08 341.808 50.696 341.808 50.2C341.808 49.704 341.408 49.336 340.944 49.336C340.48 49.336 340.096 49.704 340.096 50.2C340.096 50.696 340.48 51.08 340.944 51.08Z" fill="#333333"/>
</svg>
