<svg width="323" height="58" viewBox="0 0 323 58" fill="none" xmlns="http://www.w3.org/2000/svg">
<path d="M18.8826 38.4887H30.054C31.018 38.4887 31.7993 37.6963 31.7993 36.7191C31.7993 35.7413 31.0178 34.9484 30.054 34.9484H23.0958L29.6251 28.3265C31.027 26.9047 31.7993 25.0143 31.7993 23.0033C31.7993 20.9926 31.027 19.1023 29.6251 17.6805C28.2235 16.2584 26.3595 15.4756 24.3769 15.4756C22.3942 15.4756 20.5304 16.2587 19.1288 17.6805C18.447 18.3714 18.447 19.4925 19.1288 20.184C19.8105 20.8749 20.9154 20.875 21.5972 20.1835C22.3394 19.4304 23.3271 19.0159 24.3769 19.0159C25.4271 19.0159 26.4145 19.4304 27.157 20.184C27.8997 20.9365 28.3084 21.938 28.3084 23.0033C28.3084 24.0684 27.8997 25.0699 27.157 25.8229L17.648 35.4674C17.1487 35.9733 16.9996 36.735 17.2694 37.3966C17.54 38.0578 18.1765 38.4887 18.8826 38.4887Z" fill="#111111"/>
<path d="M46.841 34.9491H45.3577V31.3934C45.3577 30.4162 44.5764 29.6233 43.6124 29.6233C42.6484 29.6233 41.8673 30.4162 41.8673 31.3934V34.9491H37.6877L45.2047 17.9713C45.5994 17.0796 45.2066 16.0317 44.3273 15.6313C43.4479 15.231 42.4149 15.6291 42.0202 16.5207L33.3983 35.9942C33.1559 36.5418 33.2034 37.177 33.525 37.6814C33.8468 38.1852 34.3982 38.4892 34.9903 38.4892H41.8671V42.0454C41.8671 43.0227 42.6481 43.8158 43.6122 43.8158C44.5764 43.8158 45.3575 43.0227 45.3575 42.0454V38.4892H46.8407C47.8047 38.4892 48.5863 37.6968 48.5863 36.7195C48.5865 35.7418 47.8047 34.9491 46.841 34.9491Z" fill="#333333"/>
<path d="M65.4903 28.7611C65.1787 28.2136 64.6022 27.8758 63.9789 27.8758H59.8533C59.4377 21.2147 56.6833 15.0099 51.9879 10.2482C46.8791 5.06678 40.0868 2.21338 32.862 2.21338C31.898 2.21338 31.1167 3.0058 31.1167 3.98328C31.1167 4.96125 31.8983 5.75342 32.862 5.75342C45.2647 5.75342 55.4589 15.5249 56.355 27.8761H52.3513C51.7276 27.8761 51.1516 28.2138 50.84 28.7614C50.5278 29.3092 50.5278 29.984 50.84 30.5318L56.6534 40.7447C56.9655 41.2925 57.5415 41.6296 58.1648 41.6296C58.7885 41.6296 59.3647 41.2925 59.6764 40.7447L65.4901 30.5318C65.8017 29.9837 65.8017 29.3089 65.4903 28.7611ZM58.1648 36.3186L55.3743 31.4161H60.956L58.1648 36.3186Z" fill="#111111"/>
<path d="M27.4162 5.88649C27.8752 5.88649 28.3255 5.68951 28.6503 5.34762C28.9749 5.006 29.1618 4.53206 29.1618 4.04922C29.1618 3.56481 28.9751 3.09193 28.6503 2.7503C28.3257 2.40737 27.8752 2.21191 27.4162 2.21191C26.9562 2.21191 26.507 2.40737 26.1816 2.7503C25.8571 3.09193 25.6709 3.56586 25.6709 4.04922C25.6709 4.53206 25.8571 5.006 26.1816 5.34762C26.507 5.68951 26.9562 5.88649 27.4162 5.88649Z" fill="#111111"/>
<path d="M22.1806 5.88649C22.6394 5.88649 23.0899 5.68951 23.4145 5.34762C23.7403 5.006 23.9259 4.53206 23.9259 4.04922C23.9259 3.56481 23.7403 3.09193 23.4145 2.7503C23.0899 2.40737 22.6394 2.21191 22.1806 2.21191C21.7217 2.21191 21.2714 2.40737 20.9466 2.7503C20.6207 3.09193 20.4351 3.56481 20.4351 4.04922C20.4351 4.53206 20.6207 5.006 20.9466 5.34762C21.2711 5.68951 21.7217 5.88649 22.1806 5.88649Z" fill="#111111"/>
<path d="M32.8623 53.538C26.5694 53.538 20.6539 51.0526 16.2043 46.5402C12.1688 42.4473 9.77776 37.1305 9.36806 31.4154H13.3727C13.3732 31.4154 13.3737 31.4154 13.3742 31.4154C14.3382 31.4154 15.1195 30.6229 15.1195 29.6452C15.1195 29.2948 15.019 28.9677 14.8455 28.693L9.07013 18.5474C8.75875 17.9999 8.18228 17.6626 7.55877 17.6626C6.93526 17.6626 6.35904 17.9999 6.04741 18.5474L0.233722 28.7604C-0.0779074 29.3082 -0.0779074 29.983 0.233722 30.5308C0.545352 31.0786 1.12157 31.4156 1.74508 31.4156H5.87044C6.28661 38.0774 9.04076 44.2815 13.7359 49.0434C18.8447 54.2254 25.637 57.0785 32.862 57.0785C33.826 57.0785 34.6071 56.2861 34.6071 55.3081C34.6073 54.3309 33.8263 53.538 32.8623 53.538ZM7.55901 22.9728L10.3498 27.875H4.76829L7.55901 22.9728Z" fill="#111111"/>
<path d="M38.3078 53.5376C37.8488 53.5376 37.3986 53.7346 37.0737 54.0757C36.7492 54.4176 36.5625 54.8915 36.5625 55.3746C36.5625 55.8588 36.7492 56.3319 37.0737 56.6738C37.3983 57.0162 37.8488 57.2119 38.3078 57.2119C38.7678 57.2119 39.2171 57.0162 39.5426 56.6738C39.8672 56.3319 40.0529 55.8582 40.0529 55.3746C40.0529 54.8915 39.8672 54.4176 39.5426 54.0757C39.2171 53.7346 38.7678 53.5376 38.3078 53.5376Z" fill="#111111"/>
<path d="M43.5441 53.5376C43.0842 53.5376 42.6347 53.7346 42.3101 54.0757C41.9845 54.4176 41.7988 54.8915 41.7988 55.3746C41.7988 55.8582 41.9848 56.3319 42.3101 56.6738C42.6347 57.0162 43.0842 57.2119 43.5441 57.2119C44.0031 57.2119 44.4537 57.0162 44.778 56.6738C45.1026 56.3319 45.2897 55.8582 45.2897 55.3746C45.2897 54.8915 45.1028 54.4176 44.778 54.0757C44.4537 53.7346 44.0029 53.5376 43.5441 53.5376Z" fill="#111111"/>
<path d="M104.113 23.24C102.801 23.24 101.545 23.056 100.345 22.688C99.1454 22.304 98.1934 21.816 97.4894 21.224L98.5694 18.8C99.2414 19.328 100.073 19.768 101.065 20.12C102.057 20.472 103.073 20.648 104.113 20.648C104.993 20.648 105.705 20.552 106.249 20.36C106.793 20.168 107.193 19.912 107.449 19.592C107.705 19.256 107.833 18.88 107.833 18.464C107.833 17.952 107.649 17.544 107.281 17.24C106.913 16.92 106.433 16.672 105.841 16.496C105.265 16.304 104.617 16.128 103.897 15.968C103.193 15.808 102.481 15.624 101.761 15.416C101.057 15.192 100.409 14.912 99.8174 14.576C99.2414 14.224 98.7694 13.76 98.4014 13.184C98.0334 12.608 97.8494 11.872 97.8494 10.976C97.8494 10.064 98.0894 9.232 98.5694 8.48C99.0654 7.712 99.8094 7.104 100.801 6.656C101.809 6.192 103.081 5.96 104.617 5.96C105.625 5.96 106.625 6.088 107.617 6.344C108.609 6.6 109.473 6.968 110.209 7.448L109.225 9.872C108.473 9.424 107.697 9.096 106.897 8.888C106.097 8.664 105.329 8.552 104.593 8.552C103.729 8.552 103.025 8.656 102.481 8.864C101.953 9.072 101.561 9.344 101.305 9.68C101.065 10.016 100.945 10.4 100.945 10.832C100.945 11.344 101.121 11.76 101.473 12.08C101.841 12.384 102.313 12.624 102.889 12.8C103.481 12.976 104.137 13.152 104.857 13.328C105.577 13.488 106.289 13.672 106.993 13.88C107.713 14.088 108.361 14.36 108.937 14.696C109.529 15.032 110.001 15.488 110.353 16.064C110.721 16.64 110.905 17.368 110.905 18.248C110.905 19.144 110.657 19.976 110.161 20.744C109.681 21.496 108.937 22.104 107.929 22.568C106.921 23.016 105.649 23.24 104.113 23.24ZM119.135 23.168C118.047 23.168 117.087 22.968 116.255 22.568C115.423 22.152 114.775 21.528 114.311 20.696C113.847 19.848 113.615 18.784 113.615 17.504V10.184H116.615V17.096C116.615 18.248 116.871 19.112 117.383 19.688C117.911 20.248 118.655 20.528 119.615 20.528C120.319 20.528 120.927 20.384 121.439 20.096C121.967 19.808 122.375 19.376 122.663 18.8C122.967 18.224 123.119 17.512 123.119 16.664V10.184H126.119V23H123.263V19.544L123.767 20.6C123.335 21.432 122.703 22.072 121.871 22.52C121.039 22.952 120.127 23.168 119.135 23.168ZM137.151 23.168C136.111 23.168 135.159 22.928 134.295 22.448C133.447 21.968 132.767 21.248 132.255 20.288C131.759 19.312 131.511 18.08 131.511 16.592C131.511 15.088 131.751 13.856 132.231 12.896C132.727 11.936 133.399 11.224 134.247 10.76C135.095 10.28 136.063 10.04 137.151 10.04C138.415 10.04 139.527 10.312 140.487 10.856C141.463 11.4 142.231 12.16 142.791 13.136C143.367 14.112 143.655 15.264 143.655 16.592C143.655 17.92 143.367 19.08 142.791 20.072C142.231 21.048 141.463 21.808 140.487 22.352C139.527 22.896 138.415 23.168 137.151 23.168ZM130.047 27.656V10.184H132.903V13.208L132.807 16.616L133.047 20.024V27.656H130.047ZM136.815 20.6C137.535 20.6 138.175 20.44 138.735 20.12C139.311 19.8 139.767 19.336 140.103 18.728C140.439 18.12 140.607 17.408 140.607 16.592C140.607 15.76 140.439 15.048 140.103 14.456C139.767 13.848 139.311 13.384 138.735 13.064C138.175 12.744 137.535 12.584 136.815 12.584C136.095 12.584 135.447 12.744 134.871 13.064C134.295 13.384 133.839 13.848 133.503 14.456C133.167 15.048 132.999 15.76 132.999 16.592C132.999 17.408 133.167 18.12 133.503 18.728C133.839 19.336 134.295 19.8 134.871 20.12C135.447 20.44 136.095 20.6 136.815 20.6ZM153.604 23.168C152.564 23.168 151.612 22.928 150.748 22.448C149.9 21.968 149.22 21.248 148.708 20.288C148.212 19.312 147.964 18.08 147.964 16.592C147.964 15.088 148.204 13.856 148.684 12.896C149.18 11.936 149.852 11.224 150.7 10.76C151.548 10.28 152.516 10.04 153.604 10.04C154.868 10.04 155.98 10.312 156.94 10.856C157.916 11.4 158.684 12.16 159.244 13.136C159.82 14.112 160.108 15.264 160.108 16.592C160.108 17.92 159.82 19.08 159.244 20.072C158.684 21.048 157.916 21.808 156.94 22.352C155.98 22.896 154.868 23.168 153.604 23.168ZM146.5 27.656V10.184H149.356V13.208L149.26 16.616L149.5 20.024V27.656H146.5ZM153.268 20.6C153.988 20.6 154.628 20.44 155.188 20.12C155.764 19.8 156.22 19.336 156.556 18.728C156.892 18.12 157.06 17.408 157.06 16.592C157.06 15.76 156.892 15.048 156.556 14.456C156.22 13.848 155.764 13.384 155.188 13.064C154.628 12.744 153.988 12.584 153.268 12.584C152.548 12.584 151.9 12.744 151.324 13.064C150.748 13.384 150.292 13.848 149.956 14.456C149.62 15.048 149.452 15.76 149.452 16.592C149.452 17.408 149.62 18.12 149.956 18.728C150.292 19.336 150.748 19.8 151.324 20.12C151.9 20.44 152.548 20.6 153.268 20.6ZM168.713 23.168C167.401 23.168 166.233 22.888 165.209 22.328C164.185 21.752 163.377 20.968 162.785 19.976C162.193 18.984 161.897 17.856 161.897 16.592C161.897 15.312 162.193 14.184 162.785 13.208C163.377 12.216 164.185 11.44 165.209 10.88C166.233 10.32 167.401 10.04 168.713 10.04C170.041 10.04 171.217 10.32 172.241 10.88C173.281 11.44 174.089 12.208 174.665 13.184C175.257 14.16 175.553 15.296 175.553 16.592C175.553 17.856 175.257 18.984 174.665 19.976C174.089 20.968 173.281 21.752 172.241 22.328C171.217 22.888 170.041 23.168 168.713 23.168ZM168.713 20.6C169.449 20.6 170.105 20.44 170.681 20.12C171.257 19.8 171.705 19.336 172.025 18.728C172.361 18.12 172.529 17.408 172.529 16.592C172.529 15.76 172.361 15.048 172.025 14.456C171.705 13.848 171.257 13.384 170.681 13.064C170.105 12.744 169.457 12.584 168.737 12.584C168.001 12.584 167.345 12.744 166.769 13.064C166.209 13.384 165.761 13.848 165.425 14.456C165.089 15.048 164.921 15.76 164.921 16.592C164.921 17.408 165.089 18.12 165.425 18.728C165.761 19.336 166.209 19.8 166.769 20.12C167.345 20.44 167.993 20.6 168.713 20.6ZM178.422 23V10.184H181.278V13.712L180.942 12.68C181.326 11.816 181.926 11.16 182.742 10.712C183.574 10.264 184.606 10.04 185.838 10.04V12.896C185.71 12.864 185.59 12.848 185.478 12.848C185.366 12.832 185.254 12.824 185.142 12.824C184.006 12.824 183.102 13.16 182.43 13.832C181.758 14.488 181.422 15.472 181.422 16.784V23H178.422ZM193.676 23.168C192.268 23.168 191.18 22.808 190.412 22.088C189.644 21.352 189.26 20.272 189.26 18.848V7.352H192.26V18.776C192.26 19.384 192.412 19.856 192.716 20.192C193.036 20.528 193.476 20.696 194.036 20.696C194.708 20.696 195.268 20.52 195.716 20.168L196.556 22.304C196.204 22.592 195.772 22.808 195.26 22.952C194.748 23.096 194.22 23.168 193.676 23.168ZM187.148 12.68V10.28H195.692V12.68H187.148ZM204.528 23V20.912L211.2 14.576C211.76 14.048 212.176 13.584 212.448 13.184C212.72 12.784 212.896 12.416 212.976 12.08C213.072 11.728 213.12 11.4 213.12 11.096C213.12 10.328 212.856 9.736 212.328 9.32C211.8 8.888 211.024 8.672 210 8.672C209.184 8.672 208.44 8.816 207.768 9.104C207.112 9.392 206.544 9.832 206.064 10.424L203.88 8.744C204.536 7.864 205.416 7.184 206.52 6.704C207.64 6.208 208.888 5.96 210.264 5.96C211.48 5.96 212.536 6.16 213.432 6.56C214.344 6.944 215.04 7.496 215.52 8.216C216.016 8.936 216.264 9.792 216.264 10.784C216.264 11.328 216.192 11.872 216.048 12.416C215.904 12.944 215.632 13.504 215.232 14.096C214.832 14.688 214.248 15.352 213.48 16.088L207.744 21.536L207.096 20.36H216.912V23H204.528ZM218.122 19.184V17.024L226.402 6.2H229.738L221.578 17.024L220.018 16.544H233.338V19.184H218.122ZM227.338 23V19.184L227.434 16.544V13.16H230.362V23H227.338ZM233.484 25.4L241.404 2.792H244.092L236.172 25.4H233.484ZM247.185 23L254.121 7.448L254.937 8.84H245.409L246.897 7.328V11.696H243.993V6.2H257.049V8.288L250.521 23H247.185Z" fill="#333333"/>
<path d="M98.4734 51V39.8H99.6574V49.976H105.929V51H98.4734ZM110.954 51.08C110.144 51.08 109.413 50.8987 108.762 50.536C108.122 50.1627 107.616 49.656 107.242 49.016C106.869 48.3653 106.682 47.624 106.682 46.792C106.682 45.9493 106.869 45.208 107.242 44.568C107.616 43.928 108.122 43.4267 108.762 43.064C109.402 42.7013 110.133 42.52 110.954 42.52C111.786 42.52 112.522 42.7013 113.162 43.064C113.813 43.4267 114.32 43.928 114.682 44.568C115.056 45.208 115.242 45.9493 115.242 46.792C115.242 47.624 115.056 48.3653 114.682 49.016C114.32 49.656 113.813 50.1627 113.162 50.536C112.512 50.8987 111.776 51.08 110.954 51.08ZM110.954 50.072C111.562 50.072 112.101 49.9387 112.57 49.672C113.04 49.3947 113.408 49.0107 113.674 48.52C113.952 48.0187 114.09 47.4427 114.09 46.792C114.09 46.1307 113.952 45.5547 113.674 45.064C113.408 44.5733 113.04 44.1947 112.57 43.928C112.101 43.6507 111.568 43.512 110.97 43.512C110.373 43.512 109.84 43.6507 109.37 43.928C108.901 44.1947 108.528 44.5733 108.25 45.064C107.973 45.5547 107.834 46.1307 107.834 46.792C107.834 47.4427 107.973 48.0187 108.25 48.52C108.528 49.0107 108.901 49.3947 109.37 49.672C109.84 49.9387 110.368 50.072 110.954 50.072ZM117.562 51V42.6H118.65V44.888L118.538 44.488C118.772 43.848 119.167 43.3627 119.722 43.032C120.276 42.6907 120.964 42.52 121.786 42.52V43.624C121.743 43.624 121.7 43.624 121.658 43.624C121.615 43.6133 121.572 43.608 121.53 43.608C120.644 43.608 119.951 43.88 119.45 44.424C118.948 44.9573 118.698 45.72 118.698 46.712V51H117.562ZM127.348 51.08C126.474 51.08 125.706 50.8987 125.044 50.536C124.383 50.1627 123.866 49.656 123.492 49.016C123.119 48.3653 122.932 47.624 122.932 46.792C122.932 45.96 123.108 45.224 123.46 44.584C123.823 43.944 124.314 43.4427 124.932 43.08C125.562 42.7067 126.266 42.52 127.044 42.52C127.834 42.52 128.532 42.7013 129.14 43.064C129.759 43.416 130.244 43.9173 130.596 44.568C130.948 45.208 131.124 45.9493 131.124 46.792C131.124 46.8453 131.119 46.904 131.108 46.968C131.108 47.0213 131.108 47.08 131.108 47.144H123.796V46.296H130.5L130.052 46.632C130.052 46.024 129.919 45.4853 129.652 45.016C129.396 44.536 129.044 44.1627 128.596 43.896C128.148 43.6293 127.631 43.496 127.044 43.496C126.468 43.496 125.951 43.6293 125.492 43.896C125.034 44.1627 124.676 44.536 124.42 45.016C124.164 45.496 124.036 46.0453 124.036 46.664V46.84C124.036 47.48 124.175 48.0453 124.452 48.536C124.74 49.016 125.135 49.3947 125.636 49.672C126.148 49.9387 126.73 50.072 127.38 50.072C127.892 50.072 128.367 49.9813 128.804 49.8C129.252 49.6187 129.636 49.3413 129.956 48.968L130.596 49.704C130.223 50.152 129.754 50.4933 129.188 50.728C128.634 50.9627 128.02 51.08 127.348 51.08ZM143.933 42.52C144.615 42.52 145.207 42.6533 145.709 42.92C146.221 43.176 146.615 43.5707 146.893 44.104C147.181 44.6373 147.325 45.3093 147.325 46.12V51H146.189V46.232C146.189 45.3467 145.975 44.68 145.549 44.232C145.133 43.7733 144.541 43.544 143.773 43.544C143.197 43.544 142.695 43.6667 142.269 43.912C141.853 44.1467 141.527 44.4933 141.293 44.952C141.069 45.4 140.957 45.944 140.957 46.584V51H139.821V46.232C139.821 45.3467 139.607 44.68 139.181 44.232C138.754 43.7733 138.157 43.544 137.389 43.544C136.823 43.544 136.327 43.6667 135.901 43.912C135.474 44.1467 135.143 44.4933 134.909 44.952C134.685 45.4 134.573 45.944 134.573 46.584V51H133.437V42.6H134.525V44.872L134.349 44.472C134.605 43.864 135.015 43.3893 135.581 43.048C136.157 42.696 136.834 42.52 137.613 42.52C138.434 42.52 139.133 42.728 139.709 43.144C140.285 43.5493 140.658 44.1627 140.829 44.984L140.381 44.808C140.626 44.1253 141.058 43.576 141.677 43.16C142.306 42.7333 143.058 42.52 143.933 42.52ZM154.593 51V42.6H155.729V51H154.593ZM155.169 40.744C154.934 40.744 154.737 40.664 154.577 40.504C154.417 40.344 154.337 40.152 154.337 39.928C154.337 39.704 154.417 39.5173 154.577 39.368C154.737 39.208 154.934 39.128 155.169 39.128C155.403 39.128 155.601 39.2027 155.761 39.352C155.921 39.5013 156.001 39.688 156.001 39.912C156.001 40.1467 155.921 40.344 155.761 40.504C155.611 40.664 155.414 40.744 155.169 40.744ZM163.226 51.08C162.5 51.08 161.844 50.9147 161.258 50.584C160.671 50.2427 160.202 49.7573 159.85 49.128C159.508 48.488 159.338 47.7093 159.338 46.792C159.338 45.8747 159.508 45.1013 159.85 44.472C160.191 43.832 160.655 43.3467 161.242 43.016C161.828 42.6853 162.49 42.52 163.226 42.52C164.026 42.52 164.74 42.7013 165.37 43.064C166.01 43.416 166.511 43.9173 166.874 44.568C167.236 45.208 167.418 45.9493 167.418 46.792C167.418 47.6453 167.236 48.392 166.874 49.032C166.511 49.672 166.01 50.1733 165.37 50.536C164.74 50.8987 164.026 51.08 163.226 51.08ZM158.89 54.104V42.6H159.978V45.128L159.866 46.808L160.026 48.504V54.104H158.89ZM163.146 50.072C163.743 50.072 164.276 49.9387 164.746 49.672C165.215 49.3947 165.588 49.0107 165.866 48.52C166.143 48.0187 166.282 47.4427 166.282 46.792C166.282 46.1413 166.143 45.5707 165.866 45.08C165.588 44.5893 165.215 44.2053 164.746 43.928C164.276 43.6507 163.743 43.512 163.146 43.512C162.548 43.512 162.01 43.6507 161.53 43.928C161.06 44.2053 160.687 44.5893 160.41 45.08C160.143 45.5707 160.01 46.1413 160.01 46.792C160.01 47.4427 160.143 48.0187 160.41 48.52C160.687 49.0107 161.06 49.3947 161.53 49.672C162.01 49.9387 162.548 50.072 163.146 50.072ZM171.989 51.08C171.296 51.08 170.64 50.984 170.021 50.792C169.403 50.5893 168.917 50.3387 168.565 50.04L169.077 49.144C169.419 49.4 169.856 49.624 170.389 49.816C170.923 49.9973 171.483 50.088 172.069 50.088C172.869 50.088 173.445 49.9653 173.797 49.72C174.149 49.464 174.325 49.128 174.325 48.712C174.325 48.4027 174.224 48.1627 174.021 47.992C173.829 47.8107 173.573 47.6773 173.253 47.592C172.933 47.496 172.576 47.416 172.181 47.352C171.787 47.288 171.392 47.2133 170.997 47.128C170.613 47.0427 170.261 46.92 169.941 46.76C169.621 46.5893 169.36 46.36 169.157 46.072C168.965 45.784 168.869 45.4 168.869 44.92C168.869 44.4613 168.997 44.0507 169.253 43.688C169.509 43.3253 169.883 43.0427 170.373 42.84C170.875 42.6267 171.483 42.52 172.197 42.52C172.741 42.52 173.285 42.5947 173.829 42.744C174.373 42.8827 174.821 43.0693 175.173 43.304L174.677 44.216C174.304 43.96 173.904 43.7787 173.477 43.672C173.051 43.5547 172.624 43.496 172.197 43.496C171.44 43.496 170.88 43.6293 170.517 43.896C170.165 44.152 169.989 44.4827 169.989 44.888C169.989 45.208 170.085 45.4587 170.277 45.64C170.48 45.8213 170.741 45.9653 171.061 46.072C171.392 46.168 171.749 46.248 172.133 46.312C172.528 46.376 172.917 46.456 173.301 46.552C173.696 46.6373 174.053 46.76 174.373 46.92C174.704 47.0693 174.965 47.288 175.157 47.576C175.36 47.8533 175.461 48.2213 175.461 48.68C175.461 49.1707 175.323 49.5973 175.045 49.96C174.779 50.312 174.384 50.5893 173.861 50.792C173.349 50.984 172.725 51.08 171.989 51.08ZM181.018 51.08C180.303 51.08 179.679 50.9467 179.146 50.68C178.613 50.4133 178.197 50.0133 177.898 49.48C177.61 48.9467 177.466 48.28 177.466 47.48V42.6H178.602V47.352C178.602 48.248 178.821 48.9253 179.258 49.384C179.706 49.832 180.33 50.056 181.13 50.056C181.717 50.056 182.223 49.9387 182.65 49.704C183.087 49.4587 183.418 49.1067 183.642 48.648C183.877 48.1893 183.994 47.64 183.994 47V42.6H185.13V51H184.042V48.696L184.218 49.112C183.951 49.7307 183.535 50.216 182.97 50.568C182.415 50.9093 181.765 51.08 181.018 51.08ZM198.792 42.52C199.475 42.52 200.067 42.6533 200.568 42.92C201.08 43.176 201.475 43.5707 201.752 44.104C202.04 44.6373 202.184 45.3093 202.184 46.12V51H201.048V46.232C201.048 45.3467 200.835 44.68 200.408 44.232C199.992 43.7733 199.4 43.544 198.632 43.544C198.056 43.544 197.555 43.6667 197.128 43.912C196.712 44.1467 196.387 44.4933 196.152 44.952C195.928 45.4 195.816 45.944 195.816 46.584V51H194.68V46.232C194.68 45.3467 194.467 44.68 194.04 44.232C193.613 43.7733 193.016 43.544 192.248 43.544C191.683 43.544 191.187 43.6667 190.76 43.912C190.333 44.1467 190.003 44.4933 189.768 44.952C189.544 45.4 189.432 45.944 189.432 46.584V51H188.296V42.6H189.384V44.872L189.208 44.472C189.464 43.864 189.875 43.3893 190.44 43.048C191.016 42.696 191.693 42.52 192.472 42.52C193.293 42.52 193.992 42.728 194.568 43.144C195.144 43.5493 195.517 44.1627 195.688 44.984L195.24 44.808C195.485 44.1253 195.917 43.576 196.536 43.16C197.165 42.7333 197.917 42.52 198.792 42.52ZM212.796 51.08C211.996 51.08 211.276 50.8987 210.636 50.536C210.007 50.1733 209.511 49.672 209.148 49.032C208.785 48.3813 208.604 47.6347 208.604 46.792C208.604 45.9387 208.785 45.192 209.148 44.552C209.511 43.912 210.007 43.416 210.636 43.064C211.276 42.7013 211.996 42.52 212.796 42.52C213.532 42.52 214.188 42.6853 214.764 43.016C215.351 43.3467 215.815 43.832 216.156 44.472C216.508 45.1013 216.684 45.8747 216.684 46.792C216.684 47.6987 216.513 48.472 216.172 49.112C215.831 49.752 215.367 50.2427 214.78 50.584C214.204 50.9147 213.543 51.08 212.796 51.08ZM212.876 50.072C213.473 50.072 214.007 49.9387 214.476 49.672C214.956 49.3947 215.329 49.0107 215.596 48.52C215.873 48.0187 216.012 47.4427 216.012 46.792C216.012 46.1307 215.873 45.5547 215.596 45.064C215.329 44.5733 214.956 44.1947 214.476 43.928C214.007 43.6507 213.473 43.512 212.876 43.512C212.289 43.512 211.761 43.6507 211.292 43.928C210.823 44.1947 210.449 44.5733 210.172 45.064C209.895 45.5547 209.756 46.1307 209.756 46.792C209.756 47.4427 209.895 48.0187 210.172 48.52C210.449 49.0107 210.823 49.3947 211.292 49.672C211.761 49.9387 212.289 50.072 212.876 50.072ZM216.044 51V48.472L216.156 46.776L215.996 45.08V39.128H217.132V51H216.044ZM223.72 51.08C222.909 51.08 222.179 50.8987 221.528 50.536C220.888 50.1627 220.381 49.656 220.008 49.016C219.635 48.3653 219.448 47.624 219.448 46.792C219.448 45.9493 219.635 45.208 220.008 44.568C220.381 43.928 220.888 43.4267 221.528 43.064C222.168 42.7013 222.899 42.52 223.72 42.52C224.552 42.52 225.288 42.7013 225.928 43.064C226.579 43.4267 227.085 43.928 227.448 44.568C227.821 45.208 228.008 45.9493 228.008 46.792C228.008 47.624 227.821 48.3653 227.448 49.016C227.085 49.656 226.579 50.1627 225.928 50.536C225.277 50.8987 224.541 51.08 223.72 51.08ZM223.72 50.072C224.328 50.072 224.867 49.9387 225.336 49.672C225.805 49.3947 226.173 49.0107 226.44 48.52C226.717 48.0187 226.856 47.4427 226.856 46.792C226.856 46.1307 226.717 45.5547 226.44 45.064C226.173 44.5733 225.805 44.1947 225.336 43.928C224.867 43.6507 224.333 43.512 223.736 43.512C223.139 43.512 222.605 43.6507 222.136 43.928C221.667 44.1947 221.293 44.5733 221.016 45.064C220.739 45.5547 220.6 46.1307 220.6 46.792C220.6 47.4427 220.739 48.0187 221.016 48.52C221.293 49.0107 221.667 49.3947 222.136 49.672C222.605 49.9387 223.133 50.072 223.72 50.072ZM230.327 51V39.128H231.463V51H230.327ZM238.048 51.08C237.237 51.08 236.507 50.8987 235.856 50.536C235.216 50.1627 234.709 49.656 234.336 49.016C233.963 48.3653 233.776 47.624 233.776 46.792C233.776 45.9493 233.963 45.208 234.336 44.568C234.709 43.928 235.216 43.4267 235.856 43.064C236.496 42.7013 237.227 42.52 238.048 42.52C238.88 42.52 239.616 42.7013 240.256 43.064C240.907 43.4267 241.413 43.928 241.776 44.568C242.149 45.208 242.336 45.9493 242.336 46.792C242.336 47.624 242.149 48.3653 241.776 49.016C241.413 49.656 240.907 50.1627 240.256 50.536C239.605 50.8987 238.869 51.08 238.048 51.08ZM238.048 50.072C238.656 50.072 239.195 49.9387 239.664 49.672C240.133 49.3947 240.501 49.0107 240.768 48.52C241.045 48.0187 241.184 47.4427 241.184 46.792C241.184 46.1307 241.045 45.5547 240.768 45.064C240.501 44.5733 240.133 44.1947 239.664 43.928C239.195 43.6507 238.661 43.512 238.064 43.512C237.467 43.512 236.933 43.6507 236.464 43.928C235.995 44.1947 235.621 44.5733 235.344 45.064C235.067 45.5547 234.928 46.1307 234.928 46.792C234.928 47.4427 235.067 48.0187 235.344 48.52C235.621 49.0107 235.995 49.3947 236.464 49.672C236.933 49.9387 237.461 50.072 238.048 50.072ZM244.655 51V42.6H245.743V44.888L245.631 44.488C245.866 43.848 246.261 43.3627 246.815 43.032C247.37 42.6907 248.058 42.52 248.879 42.52V43.624C248.837 43.624 248.794 43.624 248.751 43.624C248.709 43.6133 248.666 43.608 248.623 43.608C247.738 43.608 247.045 43.88 246.543 44.424C246.042 44.9573 245.791 45.72 245.791 46.712V51H244.655ZM257.521 51.08C256.827 51.08 256.171 50.984 255.553 50.792C254.934 50.5893 254.449 50.3387 254.097 50.04L254.609 49.144C254.95 49.4 255.387 49.624 255.921 49.816C256.454 49.9973 257.014 50.088 257.601 50.088C258.401 50.088 258.977 49.9653 259.329 49.72C259.681 49.464 259.857 49.128 259.857 48.712C259.857 48.4027 259.755 48.1627 259.553 47.992C259.361 47.8107 259.105 47.6773 258.785 47.592C258.465 47.496 258.107 47.416 257.713 47.352C257.318 47.288 256.923 47.2133 256.529 47.128C256.145 47.0427 255.793 46.92 255.473 46.76C255.153 46.5893 254.891 46.36 254.689 46.072C254.497 45.784 254.401 45.4 254.401 44.92C254.401 44.4613 254.529 44.0507 254.785 43.688C255.041 43.3253 255.414 43.0427 255.905 42.84C256.406 42.6267 257.014 42.52 257.729 42.52C258.273 42.52 258.817 42.5947 259.361 42.744C259.905 42.8827 260.353 43.0693 260.705 43.304L260.209 44.216C259.835 43.96 259.435 43.7787 259.009 43.672C258.582 43.5547 258.155 43.496 257.729 43.496C256.971 43.496 256.411 43.6293 256.049 43.896C255.697 44.152 255.521 44.4827 255.521 44.888C255.521 45.208 255.617 45.4587 255.809 45.64C256.011 45.8213 256.273 45.9653 256.593 46.072C256.923 46.168 257.281 46.248 257.665 46.312C258.059 46.376 258.449 46.456 258.833 46.552C259.227 46.6373 259.585 46.76 259.905 46.92C260.235 47.0693 260.497 47.288 260.689 47.576C260.891 47.8533 260.993 48.2213 260.993 48.68C260.993 49.1707 260.854 49.5973 260.577 49.96C260.31 50.312 259.915 50.5893 259.393 50.792C258.881 50.984 258.257 51.08 257.521 51.08ZM263.077 51V42.6H264.213V51H263.077ZM263.653 40.744C263.418 40.744 263.221 40.664 263.061 40.504C262.901 40.344 262.821 40.152 262.821 39.928C262.821 39.704 262.901 39.5173 263.061 39.368C263.221 39.208 263.418 39.128 263.653 39.128C263.888 39.128 264.085 39.2027 264.245 39.352C264.405 39.5013 264.485 39.688 264.485 39.912C264.485 40.1467 264.405 40.344 264.245 40.504C264.096 40.664 263.898 40.744 263.653 40.744ZM270.03 51.08C269.241 51.08 268.633 50.8667 268.206 50.44C267.779 50.0133 267.566 49.4107 267.566 48.632V40.744H268.702V48.568C268.702 49.0587 268.825 49.4373 269.07 49.704C269.326 49.9707 269.689 50.104 270.158 50.104C270.659 50.104 271.075 49.96 271.406 49.672L271.806 50.488C271.582 50.6907 271.31 50.84 270.99 50.936C270.681 51.032 270.361 51.08 270.03 51.08ZM266.062 43.544V42.6H271.262V43.544H266.062ZM283.326 51V49.144L283.278 48.84V45.736C283.278 45.0213 283.075 44.472 282.67 44.088C282.275 43.704 281.683 43.512 280.894 43.512C280.35 43.512 279.832 43.6027 279.342 43.784C278.851 43.9653 278.435 44.2053 278.094 44.504L277.582 43.656C278.008 43.2933 278.52 43.016 279.118 42.824C279.715 42.6213 280.344 42.52 281.006 42.52C282.094 42.52 282.931 42.792 283.518 43.336C284.115 43.8693 284.414 44.6853 284.414 45.784V51H283.326ZM280.43 51.08C279.8 51.08 279.251 50.9787 278.782 50.776C278.323 50.5627 277.971 50.2747 277.726 49.912C277.48 49.5387 277.358 49.112 277.358 48.632C277.358 48.1947 277.459 47.8 277.662 47.448C277.875 47.0853 278.216 46.7973 278.686 46.584C279.166 46.36 279.806 46.248 280.606 46.248H283.502V47.096H280.638C279.827 47.096 279.262 47.24 278.942 47.528C278.632 47.816 278.478 48.1733 278.478 48.6C278.478 49.08 278.664 49.464 279.038 49.752C279.411 50.04 279.934 50.184 280.606 50.184C281.246 50.184 281.795 50.04 282.254 49.752C282.723 49.4533 283.064 49.0267 283.278 48.472L283.534 49.256C283.32 49.8107 282.947 50.2533 282.414 50.584C281.891 50.9147 281.23 51.08 280.43 51.08ZM297.995 42.52C298.678 42.52 299.27 42.6533 299.771 42.92C300.283 43.176 300.678 43.5707 300.955 44.104C301.243 44.6373 301.387 45.3093 301.387 46.12V51H300.251V46.232C300.251 45.3467 300.038 44.68 299.611 44.232C299.195 43.7733 298.603 43.544 297.835 43.544C297.259 43.544 296.758 43.6667 296.331 43.912C295.915 44.1467 295.59 44.4933 295.355 44.952C295.131 45.4 295.019 45.944 295.019 46.584V51H293.883V46.232C293.883 45.3467 293.67 44.68 293.243 44.232C292.816 43.7733 292.219 43.544 291.451 43.544C290.886 43.544 290.39 43.6667 289.963 43.912C289.536 44.1467 289.206 44.4933 288.971 44.952C288.747 45.4 288.635 45.944 288.635 46.584V51H287.499V42.6H288.587V44.872L288.411 44.472C288.667 43.864 289.078 43.3893 289.643 43.048C290.219 42.696 290.896 42.52 291.675 42.52C292.496 42.52 293.195 42.728 293.771 43.144C294.347 43.5493 294.72 44.1627 294.891 44.984L294.443 44.808C294.688 44.1253 295.12 43.576 295.739 43.16C296.368 42.7333 297.12 42.52 297.995 42.52ZM308.036 51.08C307.161 51.08 306.393 50.8987 305.732 50.536C305.07 50.1627 304.553 49.656 304.18 49.016C303.806 48.3653 303.62 47.624 303.62 46.792C303.62 45.96 303.796 45.224 304.148 44.584C304.51 43.944 305.001 43.4427 305.62 43.08C306.249 42.7067 306.953 42.52 307.732 42.52C308.521 42.52 309.22 42.7013 309.828 43.064C310.446 43.416 310.932 43.9173 311.284 44.568C311.636 45.208 311.812 45.9493 311.812 46.792C311.812 46.8453 311.806 46.904 311.796 46.968C311.796 47.0213 311.796 47.08 311.796 47.144H304.484V46.296H311.188L310.74 46.632C310.74 46.024 310.606 45.4853 310.34 45.016C310.084 44.536 309.732 44.1627 309.284 43.896C308.836 43.6293 308.318 43.496 307.732 43.496C307.156 43.496 306.638 43.6293 306.18 43.896C305.721 44.1627 305.364 44.536 305.108 45.016C304.852 45.496 304.724 46.0453 304.724 46.664V46.84C304.724 47.48 304.862 48.0453 305.14 48.536C305.428 49.016 305.822 49.3947 306.324 49.672C306.836 49.9387 307.417 50.072 308.068 50.072C308.58 50.072 309.054 49.9813 309.492 49.8C309.94 49.6187 310.324 49.3413 310.644 48.968L311.284 49.704C310.91 50.152 310.441 50.4933 309.876 50.728C309.321 50.9627 308.708 51.08 308.036 51.08ZM316.78 51.08C315.991 51.08 315.383 50.8667 314.956 50.44C314.529 50.0133 314.316 49.4107 314.316 48.632V40.744H315.452V48.568C315.452 49.0587 315.575 49.4373 315.82 49.704C316.076 49.9707 316.439 50.104 316.908 50.104C317.409 50.104 317.825 49.96 318.156 49.672L318.556 50.488C318.332 50.6907 318.06 50.84 317.74 50.936C317.431 51.032 317.111 51.08 316.78 51.08ZM312.812 43.544V42.6H318.012V43.544H312.812ZM320.892 51.08C320.658 51.08 320.455 50.9947 320.284 50.824C320.124 50.6533 320.044 50.4453 320.044 50.2C320.044 49.944 320.124 49.736 320.284 49.576C320.455 49.416 320.658 49.336 320.892 49.336C321.127 49.336 321.324 49.416 321.484 49.576C321.655 49.736 321.74 49.944 321.74 50.2C321.74 50.4453 321.655 50.6533 321.484 50.824C321.324 50.9947 321.127 51.08 320.892 51.08Z" fill="#333333"/>
</svg>
